# xmcd
#
# Track frame offsets: 
#        150
#        15294
#        36832
#        57130
#        75492
#        91625
#        111953
#        134118
#        148844
#        173545
#
# Disc length: 2456 seconds
#
# Revision: 0
# Processed by: cddbd v1.5.2PL0 Copyright (c) Steve Scherf et al.
# Submitted via: ExactAudioCopy v1.0b4
#
DISCID=7709960a
DTITLE=John Lee Hooker - Hooker N' Heat (DLP - LP1)
DYEAR=1970
DGENRE=Blues
TTITLE0=Messin' With The Hook
TTITLE1=The Feelin' Is Gone
TTITLE2=Send Me Your Pillow
TTITLE3=Sittin' Here Tinkin'
TTITLE4=Meet Me In The Bottom
TTITLE5=Alimonia Blues
TTITLE6=Drifter
TTITLE7=You Talk Too Much
TTITLE8=Burning Hell
TTITLE9=Bottle Up And Go
EXTD=
EXTT0=
EXTT1=
EXTT2=
EXTT3=
EXTT4=
EXTT5=
EXTT6=
EXTT7=
EXTT8=
EXTT9=
PLAYORDER=
